<?xml version="1.0" encoding="UTF-8"?><svg xmlns="http://www.w3.org/2000/svg" viewBox="0 0 842.24 219.07"><defs><style>.cls-1{fill:#fff;}.cls-2{fill:#ffe19f;}.cls-3{fill:#ff7300;}.cls-4{fill:#1c153f;} @media (prefers-color-scheme: dark) { .cls-4{ fill:#fff; } }</style></defs><g><path class="cls-4" d="m297.17,98.76c3.47-1.8,7.53-2.7,12.18-2.7,5.79,0,10.73,1.38,14.82,4.15,4.08,2.77,6.69,6.7,7.84,11.79h21.99c-.88-6.5-3.36-12.18-7.44-17.06s-9.33-8.69-15.74-11.46c-6.41-2.77-13.57-4.15-21.47-4.15-8.96,0-16.84,1.67-23.64,5-6.81,3.34-12.12,7.97-15.94,13.89-3.82,5.93-5.73,12.8-5.73,20.61s1.91,14.58,5.73,20.55c3.82,5.97,9.13,10.6,15.94,13.89,6.8,3.29,14.68,4.94,23.64,4.94,7.9,0,15.06-1.36,21.47-4.08,6.41-2.72,11.66-6.54,15.74-11.46,4.08-4.92,6.56-10.58,7.44-16.99h-21.99c-1.05,4.74-3.62,8.56-7.7,11.46s-9.07,4.35-14.95,4.35c-4.65,0-8.71-.9-12.18-2.7-3.47-1.8-6.12-4.39-7.97-7.77-1.84-3.38-2.77-7.44-2.77-12.18s.92-8.93,2.77-12.31c1.84-3.38,4.5-5.97,7.97-7.77Z"/><path class="cls-4" d="m441.05,81.31l-1.9,16.58c-3.77-5.89-8.47-10.45-14.11-13.69-5.66-3.25-12.01-4.87-19.03-4.87s-13.74,1.65-19.36,4.94c-5.62,3.29-9.99,7.9-13.1,13.83-3.12,5.93-4.68,12.84-4.68,20.74s1.56,14.68,4.68,20.61c3.12,5.93,7.48,10.54,13.1,13.83,5.62,3.29,12.07,4.94,19.36,4.94s13.37-1.63,19.03-4.87c5.66-3.24,10.35-7.83,14.08-13.75l1.92,16.64h22.78l-4.35-37.4,4.35-37.53h-22.78Zm-17.19,56.96c-3.64,1.89-7.53,2.83-11.66,2.83s-7.77-.94-10.93-2.83c-3.16-1.89-5.64-4.5-7.44-7.84-1.8-3.34-2.7-7.2-2.7-11.59s.9-8.27,2.7-11.66c1.8-3.38,4.28-6.01,7.44-7.9,3.16-1.89,6.8-2.83,10.93-2.83s8.01.94,11.66,2.83c3.64,1.89,6.87,4.52,9.68,7.9,2.81,3.38,5,7.27,6.58,11.66-1.58,4.39-3.78,8.25-6.58,11.59-2.81,3.34-6.04,5.95-9.68,7.84Z"/><path class="cls-4" d="m554.44,114.04c-4.65-1.98-11.02-3.31-19.1-4.02l-18.17-1.45c-5-.44-8.43-1.21-10.27-2.3-1.84-1.1-2.77-2.52-2.77-4.28,0-2.55,1.49-4.45,4.48-5.73,2.98-1.27,7.24-1.91,12.77-1.91,4.92,0,8.91.53,11.99,1.58,3.07,1.05,5.42,2.39,7.05,4.02,1.62,1.63,2.61,3.36,2.96,5.2h22.39c-.53-5.09-2.7-9.57-6.52-13.43-3.82-3.86-8.89-6.89-15.21-9.09-6.32-2.19-13.52-3.29-21.6-3.29s-14.86.92-20.87,2.77c-6.02,1.84-10.69,4.57-14.03,8.17-3.34,3.6-5,8.08-5,13.43,0,3.86,1.03,7.4,3.09,10.6,2.06,3.21,5.55,5.86,10.47,7.97,4.92,2.11,11.54,3.51,19.89,4.21l13.96,1.05c5.97.53,10.08,1.32,12.31,2.37,2.24,1.05,3.36,2.59,3.36,4.61,0,2.81-1.6,4.92-4.81,6.32-3.21,1.41-7.93,2.11-14.16,2.11-4.48,0-8.41-.48-11.79-1.45-3.38-.96-6.12-2.35-8.23-4.15-2.11-1.8-3.42-3.93-3.95-6.39h-22.39c.26,5.44,2.28,10.23,6.06,14.36,3.77,4.13,9.04,7.31,15.8,9.55,6.76,2.24,14.7,3.36,23.84,3.36s16.37-.99,22.52-2.96c6.14-1.98,10.78-4.89,13.89-8.76,3.12-3.86,4.68-8.47,4.68-13.83,0-4.13-.94-7.77-2.83-10.93-1.89-3.16-5.16-5.73-9.81-7.7Z"/><path class="cls-4" d="m631.62,140.84c-5.97,0-10.16-1.16-12.58-3.49-2.42-2.33-3.62-6.39-3.62-12.18v-27.26h33.19v-16.59h-33.19v-19.75h-12.64l-9.35,21.47-15.67,5.14v9.75h15.67v30.42c0,5.97,1.16,11.19,3.49,15.67,2.33,4.48,5.93,7.97,10.8,10.47,4.87,2.5,11.21,3.75,19.03,3.75,4.48,0,8.82-.46,13.04-1.38,4.21-.92,7.59-1.91,10.14-2.96v-17.12c-2.63,1.32-5.4,2.33-8.3,3.03-2.9.7-6.24,1.05-10.01,1.05Z"/><path class="cls-4" d="m733.16,84.28c-7.03-3.29-15.19-4.94-24.5-4.94s-17.47,1.65-24.5,4.94c-7.03,3.29-12.51,7.9-16.46,13.83-3.95,5.93-5.93,12.84-5.93,20.74s1.97,14.68,5.93,20.61c3.95,5.93,9.44,10.54,16.46,13.83,7.02,3.29,15.19,4.94,24.5,4.94s17.47-1.65,24.5-4.94c7.02-3.29,12.49-7.9,16.4-13.83,3.91-5.93,5.86-12.8,5.86-20.61s-1.95-14.82-5.86-20.74c-3.91-5.93-9.37-10.54-16.4-13.83Zm-2.96,46.62c-1.98,3.38-4.79,5.99-8.43,7.84-3.64,1.84-8.01,2.77-13.1,2.77s-9.35-.92-13.04-2.77c-3.69-1.84-6.52-4.46-8.49-7.84-1.98-3.38-2.96-7.4-2.96-12.05s.99-8.8,2.96-12.18c1.98-3.38,4.81-5.99,8.49-7.84s8.03-2.77,13.04-2.77,9.46.92,13.1,2.77c3.64,1.84,6.45,4.46,8.43,7.84,1.98,3.38,2.96,7.44,2.96,12.18s-.99,8.67-2.96,12.05Z"/><path class="cls-4" d="m829.37,79.67c-1.71-.22-3.4-.33-5.07-.33-5.09,0-9.48,1.03-13.17,3.09-3.69,2.06-6.78,4.87-9.28,8.43-2.18,3.1-3.94,6.63-5.29,10.59l-3.34-20.13h-22.26l4.74,24.63v50.31h21.99v-32.4c0-5.88,1.01-10.75,3.03-14.62,2.02-3.86,4.78-6.72,8.3-8.56,3.51-1.84,7.46-2.77,11.85-2.77,2.02,0,4.17.13,6.45.4,2.28.26,4.56.66,6.85,1.19v-18.96c-1.49-.35-3.09-.64-4.81-.86Z"/><path class="cls-1" d="m129.65,161.31c3.55,3.65,5.13,8.79,4.25,13.8l-4.82,27.5c-.59,3.36-3.34,5.92-6.73,6.26l-4.69.47c-1.6.16-2.98-1.09-2.98-2.69v-54.85c0-1.51,1.28-2.48,2.57-2.4.63.36,1.28.74,1.94,1.12l10.46,10.79Z"/><path class="cls-1" d="m105.1,151.8v54.85c0,1.6-1.39,2.85-2.98,2.69l-4.69-.47c-3.39-.34-6.14-2.9-6.73-6.26l-4.82-27.5c-.88-5.01.7-10.15,4.25-13.8l10.46-10.79.04-.03c.4-.32.8-.63,1.18-.93,1.48-.59,3.29.45,3.29,2.24Z"/><path class="cls-1" d="m76.67,86.09c-1.47.22-2.71.89-3.64,1.83,8.8-16.36,24.09-27.8,31.93-32.89,3-1.96,6.86-1.96,9.86,0,7.83,5.09,23.12,16.52,31.91,32.87-.93-.93-2.17-1.59-3.63-1.81-5.98-.87-18.58-1.22-33.21-1.22s-27.23.35-33.22,1.22Z"/><path class="cls-3" d="m217.58,89.22c.03.16.06.31.09.47h-29.81c-6.1,0-10.22-6.22-7.86-11.84,4.49-10.73,14.27-18.68,26.07-20.64.16.29.32.58.47.88.27.49.53.99.79,1.49.18.35.36.7.54,1.06.32.63.64,1.27.94,1.92.22.45.44.91.65,1.37.6,1.28,1.17,2.58,1.71,3.9.19.44.37.88.54,1.33.22.55.44,1.11.65,1.67.26.67.51,1.34.75,2.02s.48,1.36.71,2.05c.23.68.46,1.37.67,2.06.22.69.43,1.38.63,2.08.17.56.33,1.13.49,1.7.09.32.17.64.26.97.11.41.21.81.32,1.22.38,1.52.73,3.05,1.05,4.6.12.56.23,1.12.34,1.69Z"/><path class="cls-2" d="m217.58,89.22c-.11-.57-.22-1.13-.34-1.69.13.56.24,1.12.34,1.69Z"/><path class="cls-2" d="m216.19,82.93c-.11-.41-.21-.81-.32-1.22.11.4.22.81.32,1.22Z"/><path class="cls-2" d="m215.61,80.74c-.16-.57-.32-1.14-.49-1.7.18.56.34,1.13.49,1.7Z"/><path class="cls-2" d="m215.12,79.04c-.2-.7-.41-1.39-.63-2.08.23.69.44,1.38.63,2.08Z"/><path class="cls-2" d="m213.82,74.9c-.23-.69-.47-1.37-.71-2.05.25.68.49,1.36.71,2.05Z"/><path class="cls-2" d="m213.11,72.85c-.24-.68-.49-1.35-.75-2.02.26.67.51,1.34.75,2.02Z"/><path class="cls-2" d="m212.36,70.83c-.21-.56-.43-1.12-.65-1.67.23.55.44,1.11.65,1.67Z"/><path class="cls-3" d="m211.71,69.16c-.17-.45-.35-.89-.54-1.33.18.44.36.88.54,1.33Z"/><path class="cls-3" d="m209.46,63.93c-.21-.46-.43-.92-.65-1.37.22.45.44.91.65,1.37Z"/><path class="cls-2" d="m207.87,60.64c-.18-.36-.36-.71-.54-1.06.18.35.36.7.54,1.06Z"/><path class="cls-3" d="m207.33,59.58c-.26-.5-.52-1-.79-1.49.27.49.53.99.79,1.49Z"/><path class="cls-2" d="m185.65,188.42c2.93-2.81,5.72-5.76,8.32-8.87l.35.29c-17.07,20.58-41.53,34.83-69.31,38.66.33-.27.66-.59.98-.96,1.45-.28,2.71-.59,3.79-.9,3.68-1.07,6.51-4.01,7.42-7.74l6.64-27c.93-3.77,4.88-5.94,8.56-4.7l33.25,11.22Z"/><path class="cls-3" d="m109.89,93.49s-14.06-1.06-38.24-2.87c.02-.03.03-.05.05-.08,0-.01.01-.02.02-.03,0-.01,0-.02,0-.03s.01-.02.01-.03c.02-.03.03-.07.05-.1.03-.06.06-.11.08-.16.36-.77.75-1.52,1.16-2.27.93-.94,2.17-1.61,3.64-1.83,5.99-.87,18.59-1.22,33.22-1.22s27.23.35,33.21,1.22c1.46.22,2.7.88,3.63,1.81.41.75.81,1.51,1.17,2.29-.05-.09-.09-.18-.14-.27-.02-.04-.05-.07-.07-.11.07.13.14.26.21.38.04.08.09.16.13.25.02.05.05.09.07.14.01.02.02.03.02.04-24.17,1.81-38.23,2.87-38.23,2.87Z"/><path class="cls-3" d="m147.76,89.92c.05.09.09.18.14.27-.07-.12-.14-.25-.21-.38.02.04.05.07.07.11Z"/><path class="cls-3" d="m72.27,96.24c-1.42-2.04-1.47-4.48-.54-6.47.09-.2.2-.38.29-.57.28-.46.62-.9,1.01-1.28-.41.75-.8,1.5-1.16,2.27-.04.05-.06.1-.08.16-.02.03-.03.07-.05.1-.01.01-.02.02-.02.03l-.03.06s-.02.05-.04.08c24.18,1.81,38.24,2.87,38.24,2.87,0,0,14.06-1.06,38.23-2.87,0-.01-.01-.02-.02-.04-.02-.05-.05-.09-.07-.14-.04-.09-.09-.17-.13-.25-.36-.78-.76-1.54-1.17-2.29.37.36.69.76.96,1.2.14.26.28.51.41.77.88,1.97.81,4.36-.59,6.37l-21.73,28.11c-3.88,5.02-3.81,12.05.16,16.99l13.42,16.68c3.06,3.81,7.17,6.62,11.83,8.08l42.78,13.45c-2.6,3.11-5.39,6.06-8.32,8.87l-33.25-11.22c-3.68-1.24-7.63.93-8.56,4.7l-6.64,27c-.91,3.73-3.74,6.67-7.42,7.74-1.08.31-2.34.62-3.79.9,9.13-10.22,16.36-55.94,13.36-55.79-1.2.07-11.73-6.29-20.16-11.23l-.38-.39c-.45-.47-1.01-.7-1.56-.73-4.44-2.58-7.96-4.53-8.63-4.53s-3.34,1.97-6.81,4.69c-.3.12-.59.31-.84.57l-.34.36-.04.03c-7.72,6.11-18.3,14.99-19.67,14.91-2-.12,2.57,43.49,14.81,52.44-2.3-.36-4.19-.78-5.73-1.23-3.68-1.07-6.51-4.01-7.42-7.74l-6.64-27c-.93-3.77-4.88-5.94-8.56-4.7l-33.25,11.22c-2.93-2.81-5.72-5.76-8.32-8.87l42.78-13.45c4.65-1.46,8.77-4.27,11.83-8.08l13.42-16.68c3.97-4.94,4.04-11.97.16-16.99l-21.73-28.11Z"/><path class="cls-3" d="m139.35,161.75c3-.15-4.23,45.57-13.36,55.79-1.04.2-2.19.38-3.44.55-4.16.47-8.38.73-12.66.73s-8.51-.26-12.66-.73c-.52-.07-1.02-.14-1.5-.22-12.24-8.95-16.81-52.56-14.81-52.44,1.37.08,11.95-8.8,19.67-14.91l-10.46,10.79c-3.55,3.65-5.13,8.79-4.25,13.8l4.82,27.5c.59,3.36,3.34,5.92,6.73,6.26l4.69.47c1.59.16,2.98-1.09,2.98-2.69v-54.85c0-1.79-1.81-2.83-3.29-2.24,3.47-2.72,6.16-4.69,6.81-4.69s4.19,1.95,8.63,4.53c-1.29-.08-2.57.89-2.57,2.4v54.85c0,1.6,1.38,2.85,2.98,2.69l4.69-.47c3.39-.34,6.14-2.9,6.73-6.26l4.82-27.5c.88-5.01-.7-10.15-4.25-13.8l-10.46-10.79c8.43,4.94,18.96,11.3,20.16,11.23Z"/><path class="cls-2" d="m118.81,150.13l.38.39c-.66-.38-1.31-.76-1.94-1.12.55.03,1.11.26,1.56.73Z"/><path class="cls-2" d="m101.81,149.56c-.38.3-.78.61-1.18.93l.34-.36c.25-.26.54-.45.84-.57Z"/><path class="cls-3" d="m71.79,90.35c.02-.06.04-.11.08-.16-.02.05-.05.1-.08.16Z"/><path class="cls-3" d="m71.72,90.48s0-.02.02-.03c0,.01-.01.02-.01.03h0Z"/><path class="cls-3" d="m71.72,90.48h0s0,.02,0,.03v-.03Z"/><path class="cls-3" d="m71.72,90.48v.03s-.02.02-.02.03h-.01l.03-.06Z"/><path class="cls-3" d="m71.69,90.54h.01s-.03.05-.05.08c.02-.03.03-.05.04-.08Z"/><path class="cls-3" d="m39.28,77.85c2.36,5.62-1.76,11.84-7.86,11.84H2.11c.03-.14.05-.27.08-.41.11-.58.23-1.16.35-1.74.29-1.44.62-2.86.97-4.26.18-.71.36-1.41.55-2.11s.38-1.4.59-2.09c.6-2.09,1.27-4.14,2-6.17.24-.68.49-1.35.75-2.02.23-.63.48-1.25.73-1.87.54-1.37,1.12-2.73,1.73-4.08.14-.32.29-.64.44-.96.22-.49.45-.98.68-1.46.46-.94.92-1.88,1.4-2.8.31-.61.63-1.21.95-1.81.11-.21.22-.41.33-.61,11.6,2.08,21.19,9.96,25.62,20.55Z"/><path class="cls-2" d="m97.35,218.82c-28.84-3.29-54.29-17.76-71.89-38.98l.35-.29c2.6,3.11,5.39,6.06,8.32,8.87l33.25-11.22c3.68-1.24,7.63.93,8.56,4.7l6.64,27c.91,3.73,3.74,6.67,7.42,7.74,1.54.45,3.43.87,5.73,1.23.53.38,1.07.7,1.62.95Z"/><path class="cls-2" d="m25.81,179.55l-.35.29c-4.52-5.45-8.53-11.35-11.94-17.62l47.25-14.86c1.4-.44,2.17-1.92,1.74-3.32-.44-1.39-1.93-2.17-3.32-1.73l-48.13,15.12c-2.61-5.43-4.8-11.11-6.5-17l49.07-15.43c1.4-.43,2.18-1.92,1.74-3.32-.44-1.39-1.93-2.17-3.32-1.73l-48.84,15.35c-1.94-8.16-2.96-16.66-2.96-25.41,0-6.9.64-13.65,1.86-20.2h29.31c6.1,0,10.22-6.22,7.86-11.84-4.43-10.59-14.02-18.47-25.62-20.55C32.29,23.3,68.4.25,109.89.25s77.54,23.01,96.18,56.96c-11.8,1.96-21.58,9.91-26.07,20.64-2.36,5.62,1.76,11.84,7.86,11.84h29.81c1.22,6.55,1.86,13.3,1.86,20.2,0,8.75-1.03,17.25-2.96,25.41l-48.84-15.35c-1.39-.44-2.88.34-3.32,1.73-.44,1.4.34,2.89,1.73,3.32l49.08,15.43c-1.7,5.89-3.89,11.57-6.51,17l-48.12-15.12c-1.39-.44-2.88.34-3.32,1.73-.44,1.4.34,2.88,1.73,3.32l47.26,14.86c-3.41,6.27-7.41,12.17-11.94,17.62l-.35-.29-42.78-13.45c-4.66-1.46-8.77-4.27-11.83-8.08l-13.42-16.68c-3.97-4.94-4.04-11.97-.16-16.99l21.73-28.11c1.4-2.01,1.47-4.4.59-6.37-.13-.26-.27-.51-.41-.77-.27-.44-.59-.84-.96-1.2-8.79-16.35-24.08-27.78-31.91-32.87-3-1.96-6.86-1.96-9.86,0-7.84,5.09-23.13,16.53-31.93,32.89-.39.38-.73.82-1.01,1.28-.09.19-.2.37-.29.57-.93,1.99-.88,4.43.54,6.47l21.73,28.11c3.88,5.02,3.81,12.05-.16,16.99l-13.42,16.68c-3.06,3.81-7.18,6.62-11.83,8.08l-42.78,13.45Z"/><path class="cls-3" d="m13.33,57.91c-.32.6-.64,1.2-.95,1.81.31-.61.63-1.21.95-1.81Z"/><path class="cls-3" d="m10.98,62.52c-.23.48-.46.97-.68,1.46.22-.49.45-.98.68-1.46Z"/><path class="cls-2" d="m10.3,63.98c-.15.32-.3.64-.44.96.14-.32.29-.64.44-.96Z"/><path class="cls-2" d="m8.13,69.02c-.25.62-.5,1.24-.73,1.87.23-.63.47-1.25.73-1.87Z"/><path class="cls-2" d="m7.4,70.89c-.26.67-.51,1.34-.75,2.02.24-.68.48-1.35.75-2.02Z"/><path class="cls-2" d="m4.65,79.08c-.21.69-.4,1.39-.59,2.09.18-.7.38-1.4.59-2.09Z"/><path class="cls-2" d="m4.06,81.17c-.19.7-.37,1.4-.55,2.11.17-.71.35-1.41.55-2.11Z"/><path class="cls-2" d="m2.54,87.54c-.12.58-.24,1.16-.35,1.74.1-.58.22-1.16.35-1.74Z"/><path class="cls-3" d="m837.07,136.86c-1.66-.84-3.64-1.26-5.95-1.26s-4.25.42-5.92,1.26c-1.68.84-2.96,2.02-3.86,3.56-.9,1.54-1.35,3.38-1.35,5.53s.45,3.94,1.35,5.47c.9,1.54,2.18,2.72,3.86,3.56,1.68.84,3.65,1.26,5.92,1.26s4.3-.42,5.95-1.26c1.65-.84,2.93-2.02,3.83-3.56.9-1.54,1.35-3.36,1.35-5.47s-.45-4-1.35-5.53c-.9-1.54-2.17-2.72-3.83-3.56Z"/></g></svg>
