<?xml version="1.0" encoding="UTF-8"?><svg xmlns="http://www.w3.org/2000/svg" viewBox="0 0 578.19 356.77"><defs><style>.cls-1{fill:#fff;}.cls-2{fill:#ffe19f;}.cls-3{fill:#ff7300;}.cls-4{fill:#1c153f;} @media (prefers-color-scheme: dark) { .cls-4{ fill:#fff; } }</style></defs><g><path class="cls-1" d="m308.86,161.31c3.54,3.65,5.12,8.79,4.24,13.8l-4.82,27.5c-.59,3.36-3.34,5.92-6.73,6.26l-4.69.47c-1.59.16-2.97-1.09-2.97-2.69v-54.85c0-1.51,1.28-2.48,2.57-2.4.63.36,1.28.74,1.94,1.12l10.46,10.79Z"/><path class="cls-1" d="m284.3,151.8v54.85c0,1.6-1.38,2.85-2.97,2.69l-4.69-.47c-3.39-.34-6.15-2.9-6.73-6.26l-4.82-27.5c-.88-5.01.7-10.15,4.24-13.8l10.43-10.75c.43-.35.85-.68,1.26-1,1.47-.59,3.28.45,3.28,2.24Z"/><path class="cls-1" d="m255.88,86.09c-1.46.22-2.7.88-3.63,1.82,8.79-16.35,24.09-27.79,31.91-32.88,3-1.96,6.87-1.96,9.87,0,7.82,5.09,23.11,16.53,31.91,32.88-.93-.94-2.17-1.6-3.63-1.82-5.98-.87-18.58-1.22-33.22-1.22s-27.23.35-33.21,1.22Z"/><path class="cls-3" d="m396.87,89.69h-29.8c-6.1,0-10.23-6.22-7.87-11.84,4.5-10.73,14.27-18.68,26.07-20.64.34.62.68,1.25,1.01,1.88s.65,1.27.97,1.91.63,1.28.94,1.92c.92,1.94,1.78,3.91,2.59,5.9.27.67.53,1.34.79,2.01s.51,1.34.75,2.02.48,1.36.71,2.05c.23.68.45,1.37.67,2.06s.43,1.38.63,2.08c.21.7.4,1.4.59,2.1s.37,1.41.55,2.11c.18.71.35,1.42.51,2.13.32,1.43.62,2.87.89,4.31Z"/><path class="cls-2" d="m395.98,85.38c-.16-.71-.33-1.42-.51-2.13.19.7.36,1.41.51,2.13Z"/><path class="cls-2" d="m395.47,83.25c-.18-.7-.36-1.41-.55-2.11.2.7.38,1.4.55,2.11Z"/><path class="cls-2" d="m394.92,81.14c-.19-.7-.38-1.4-.59-2.1.21.7.41,1.4.59,2.1Z"/><path class="cls-2" d="m394.33,79.04c-.2-.7-.41-1.39-.63-2.08.23.69.44,1.38.63,2.08Z"/><path class="cls-2" d="m393.03,74.9c-.23-.69-.47-1.37-.71-2.05.25.68.49,1.36.71,2.05Z"/><path class="cls-2" d="m392.32,72.85c-.24-.68-.49-1.35-.75-2.02.26.67.51,1.34.75,2.02Z"/><path class="cls-2" d="m391.57,70.83c-.26-.67-.52-1.34-.79-2.01.28.66.54,1.33.79,2.01Z"/><path class="cls-2" d="m390.78,68.82c-.81-1.99-1.67-3.96-2.59-5.9.93,1.93,1.79,3.9,2.59,5.9Z"/><path class="cls-2" d="m388.19,62.92c-.31-.64-.62-1.28-.94-1.92.33.63.64,1.27.94,1.92Z"/><path class="cls-2" d="m387.25,61c-.32-.64-.64-1.28-.97-1.91.34.63.66,1.27.97,1.91Z"/><path class="cls-2" d="m386.28,59.09c-.33-.63-.67-1.26-1.01-1.88.35.62.69,1.25,1.01,1.88Z"/><path class="cls-2" d="m373.53,179.84c-17.07,20.58-41.53,34.83-69.31,38.66.34-.27.67-.6.99-.97,1.45-.27,2.69-.58,3.77-.89,3.68-1.07,6.51-4.01,7.43-7.74l6.64-27c.92-3.77,4.88-5.94,8.56-4.7l33.24,11.22c2.94-2.8,5.72-5.76,8.33-8.87l.35.29Z"/><path class="cls-3" d="m327.16,90.28c.03.08.08.15.11.23-.01-.02-.02-.04-.04-.07-.02-.06-.05-.11-.07-.16Z"/><path class="cls-3" d="m327.16,90.28s.05.1.07.16c-.03-.06-.05-.12-.08-.17h.01Z"/><path class="cls-3" d="m327.06,90.1s.03.05.05.08h0s-.03-.06-.04-.08Z"/><path class="cls-3" d="m327.11,90.18h0,0Z"/><path class="cls-3" d="m327.06,90.09c-.06-.09-.11-.18-.16-.28.02.04.04.07.07.11.03.06.06.11.09.17Z"/><path class="cls-3" d="m326.97,89.92c.04.06.07.11.09.17-.03-.06-.06-.11-.09-.17Z"/><path class="cls-3" d="m251.22,89.92c.32-.68.67-1.35,1.03-2.01.93-.94,2.17-1.6,3.63-1.82,5.98-.87,18.58-1.22,33.21-1.22s27.24.35,33.22,1.22c1.46.22,2.7.88,3.63,1.82.36.66.71,1.33,1.03,2.01-.03-.04-.05-.07-.07-.11.05.1.1.19.16.28,0,0,0,0,0,.01,0,.02.03.05.04.08h0s.03.06.04.09c.03.05.05.11.08.17.02.03.03.05.04.07.02.02.03.05.04.07,0,.02,0,.03.02.05-24.18,1.8-38.24,2.86-38.24,2.86,0,0-14.05-1.06-38.23-2.86.03-.05.05-.1.07-.15.01,0,.01-.02.02-.03.05-.12.11-.24.18-.35.02-.06.06-.12.09-.18Z"/><path class="cls-3" d="m251.22,89.92c-.04.06-.07.12-.09.18-.07.11-.13.23-.18.35-.01.01-.01.02-.02.03-.02.05-.05.09-.07.15,24.18,1.8,38.23,2.86,38.23,2.86,0,0,14.06-1.06,38.24-2.86-.01-.02-.02-.03-.02-.05-.01-.02-.02-.05-.04-.07-.03-.08-.08-.15-.11-.23h-.01s-.02-.07-.04-.09h0s-.03-.07-.05-.09c0-.01,0-.01,0-.01-.02-.06-.05-.11-.09-.17-.32-.68-.67-1.35-1.03-2.01.37.35.69.76.96,1.19.13.26.28.51.41.77.88,1.97.8,4.36-.59,6.37l-21.74,28.11c-3.88,5.02-3.81,12.05.17,16.99l13.41,16.68c3.06,3.81,7.18,6.62,11.84,8.08l42.78,13.45c-2.61,3.11-5.39,6.07-8.33,8.87l-33.24-11.22c-3.68-1.24-7.64.93-8.56,4.7l-6.64,27c-.92,3.73-3.75,6.67-7.43,7.74-1.08.31-2.32.62-3.77.89,9.13-10.24,16.35-55.93,13.35-55.78-1.2.07-11.74-6.29-20.16-11.23l-.38-.39c-.46-.47-1.01-.7-1.56-.73-4.44-2.58-7.96-4.53-8.63-4.53s-3.34,1.97-6.81,4.69c-.3.12-.59.31-.85.57l-.41.43c-7.71,6.1-18.26,14.95-19.63,14.87-2-.12,2.57,43.49,14.81,52.44-2.3-.36-4.19-.78-5.73-1.23-3.68-1.07-6.51-4.01-7.43-7.74l-6.64-27c-.92-3.77-4.88-5.94-8.56-4.7l-33.24,11.22c-2.94-2.8-5.72-5.76-8.33-8.87l42.78-13.45c4.66-1.46,8.78-4.27,11.84-8.08l13.41-16.68c3.98-4.94,4.04-11.97.16-16.99l-21.73-28.11c-1.42-2.04-1.47-4.48-.54-6.47.1-.2.2-.38.3-.57.28-.47.62-.91,1.02-1.29-.36.66-.71,1.33-1.03,2.01Z"/><path class="cls-3" d="m318.56,161.75c3-.15-4.22,45.54-13.35,55.78-1.04.2-2.2.39-3.46.56-4.15.47-8.37.73-12.66.73s-8.5-.26-12.66-.73c-.51-.07-1.01-.14-1.49-.22-12.24-8.95-16.81-52.56-14.81-52.44,1.37.08,11.92-8.77,19.63-14.87l-10.43,10.75c-3.54,3.65-5.12,8.79-4.24,13.8l4.82,27.5c.58,3.36,3.34,5.92,6.73,6.26l4.69.47c1.59.16,2.97-1.09,2.97-2.69v-54.85c0-1.79-1.81-2.83-3.28-2.24,3.47-2.72,6.16-4.69,6.81-4.69s4.19,1.95,8.63,4.53c-1.29-.08-2.57.89-2.57,2.4v54.85c0,1.6,1.38,2.85,2.97,2.69l4.69-.47c3.39-.34,6.14-2.9,6.73-6.26l4.82-27.5c.88-5.01-.7-10.15-4.24-13.8l-10.46-10.79c8.42,4.94,18.96,11.3,20.16,11.23Z"/><path class="cls-2" d="m298.02,150.13l.38.39c-.66-.38-1.31-.76-1.94-1.12.55.03,1.1.26,1.56.73Z"/><path class="cls-2" d="m280.17,150.13c.26-.26.55-.45.85-.57-.41.32-.83.65-1.26,1l.41-.43Z"/><path class="cls-3" d="m251.13,90.1c.02-.06.05-.12.09-.18-.03.06-.07.12-.09.18Z"/><path class="cls-3" d="m250.93,90.48c-.02.05-.04.1-.07.15.02-.06.05-.1.07-.15Z"/><path class="cls-3" d="m218.49,77.85c2.36,5.62-1.77,11.84-7.87,11.84h-29.3c.13-.72.27-1.44.42-2.15.3-1.43.62-2.85.97-4.26.18-.71.36-1.41.55-2.11s.38-1.4.59-2.09c.61-2.09,1.27-4.14,2-6.17.24-.68.49-1.35.75-2.02.23-.63.48-1.25.73-1.87.55-1.37,1.13-2.73,1.73-4.08.3-.65.6-1.3.9-1.94.24-.51.49-1.02.73-1.52.12-.24.24-.48.36-.71.25-.5.5-.98.75-1.47.06-.12.12-.23.18-.34.29-.56.59-1.11.89-1.66,11.6,2.08,21.18,9.96,25.62,20.55Z"/><path class="cls-2" d="m276.56,218.82c-28.84-3.28-54.3-17.76-71.9-38.98l.35-.29c2.61,3.11,5.39,6.07,8.33,8.87l33.24-11.22c3.68-1.24,7.64.93,8.56,4.7l6.64,27c.92,3.73,3.75,6.67,7.43,7.74,1.54.45,3.43.87,5.73,1.23.53.38,1.07.7,1.62.95Z"/><path class="cls-2" d="m205.01,179.55l-.35.29c-4.52-5.45-8.53-11.35-11.94-17.62l47.26-14.86c1.39-.44,2.17-1.92,1.73-3.32-.44-1.39-1.92-2.17-3.32-1.73l-48.12,15.13c-2.62-5.44-4.8-11.12-6.51-17.01l49.08-15.43c1.39-.43,2.17-1.92,1.73-3.32-.44-1.39-1.92-2.17-3.32-1.73l-48.84,15.35c-1.93-8.15-2.96-16.66-2.96-25.41,0-7.66.78-15.13,2.29-22.35-.15.71-.29,1.43-.42,2.15h29.3c6.1,0,10.23-6.22,7.87-11.84-4.44-10.59-14.02-18.47-25.62-20.55C211.49,23.3,247.6.25,289.09.25s77.55,23.01,96.18,56.96c-11.8,1.96-21.57,9.91-26.07,20.64-2.36,5.62,1.77,11.84,7.87,11.84h29.8c-.27-1.44-.57-2.88-.89-4.31,1.81,7.88,2.76,16.08,2.76,24.51s-1.03,17.26-2.97,25.41l-48.83-15.35c-1.4-.44-2.88.34-3.32,1.73-.44,1.4.33,2.89,1.73,3.32l49.07,15.43c-1.7,5.89-3.88,11.57-6.5,17.01l-48.12-15.13c-1.4-.44-2.88.34-3.32,1.73-.44,1.4.33,2.88,1.73,3.32l47.26,14.86c-3.41,6.27-7.41,12.17-11.94,17.62l-.35-.29-42.78-13.45c-4.66-1.46-8.78-4.27-11.84-8.08l-13.41-16.68c-3.98-4.94-4.05-11.97-.17-16.99l21.74-28.11c1.39-2.01,1.47-4.4.59-6.37-.13-.26-.28-.51-.41-.77-.27-.43-.59-.84-.96-1.19-8.8-16.35-24.09-27.79-31.91-32.88-3-1.96-6.87-1.96-9.87,0-7.82,5.09-23.12,16.53-31.91,32.88-.4.38-.74.82-1.02,1.29-.1.19-.2.37-.3.57-.93,1.99-.88,4.43.54,6.47l21.73,28.11c3.88,5.02,3.82,12.05-.16,16.99l-13.41,16.68c-3.06,3.81-7.18,6.62-11.84,8.08l-42.78,13.45Z"/><path class="cls-2" d="m192.87,57.3c-.3.55-.6,1.1-.89,1.66.28-.56.58-1.11.89-1.66Z"/><path class="cls-2" d="m191.8,59.3c-.25.49-.5.97-.75,1.47.24-.49.49-.98.75-1.47Z"/><path class="cls-2" d="m190.69,61.48c-.24.5-.49,1.01-.73,1.52.23-.51.48-1.02.73-1.52Z"/><path class="cls-2" d="m189.96,63c-.3.64-.6,1.29-.9,1.94.29-.65.59-1.3.9-1.94Z"/><path class="cls-2" d="m187.33,69.02c-.25.62-.5,1.24-.73,1.87.23-.63.47-1.25.73-1.87Z"/><path class="cls-2" d="m186.6,70.89c-.26.67-.51,1.34-.75,2.02.24-.68.48-1.35.75-2.02Z"/><path class="cls-2" d="m183.85,79.08c-.21.69-.4,1.39-.59,2.09.18-.7.38-1.4.59-2.09Z"/><path class="cls-2" d="m183.26,81.17c-.19.7-.37,1.4-.55,2.11.17-.71.35-1.41.55-2.11Z"/><path class="cls-2" d="m181.74,87.54c.29-1.43.61-2.85.97-4.26-.35,1.41-.67,2.83-.97,4.26Z"/><path class="cls-4" d="m33.12,297.31c3.47-1.8,7.53-2.7,12.18-2.7,5.79,0,10.73,1.38,14.82,4.15,4.08,2.77,6.69,6.7,7.84,11.79h21.99c-.88-6.5-3.36-12.18-7.44-17.06s-9.33-8.69-15.74-11.46c-6.41-2.77-13.57-4.15-21.47-4.15-8.96,0-16.84,1.67-23.64,5-6.81,3.34-12.12,7.97-15.94,13.89-3.82,5.93-5.73,12.8-5.73,20.61s1.91,14.58,5.73,20.55c3.82,5.97,9.13,10.6,15.94,13.89,6.8,3.29,14.68,4.94,23.64,4.94,7.9,0,15.06-1.36,21.47-4.08,6.41-2.72,11.66-6.54,15.74-11.46,4.08-4.92,6.56-10.58,7.44-16.99h-21.99c-1.05,4.74-3.62,8.56-7.7,11.46-4.08,2.9-9.07,4.35-14.95,4.35-4.65,0-8.71-.9-12.18-2.7-3.47-1.8-6.12-4.39-7.97-7.77-1.84-3.38-2.77-7.44-2.77-12.18s.92-8.93,2.77-12.31c1.84-3.38,4.5-5.97,7.97-7.77Z"/><path class="cls-4" d="m177,279.86l-1.9,16.58c-3.77-5.89-8.47-10.45-14.11-13.69-5.66-3.25-12.01-4.87-19.03-4.87s-13.74,1.65-19.36,4.94c-5.62,3.29-9.99,7.9-13.1,13.83-3.12,5.93-4.68,12.84-4.68,20.74s1.56,14.68,4.68,20.61c3.12,5.93,7.48,10.54,13.1,13.83,5.62,3.29,12.07,4.94,19.36,4.94s13.37-1.63,19.03-4.87c5.66-3.24,10.35-7.83,14.08-13.75l1.92,16.64h22.78l-4.35-37.4,4.35-37.53h-22.78Zm-17.19,56.96c-3.64,1.89-7.53,2.83-11.66,2.83s-7.77-.94-10.93-2.83c-3.16-1.89-5.64-4.5-7.44-7.84-1.8-3.34-2.7-7.2-2.7-11.59s.9-8.27,2.7-11.66c1.8-3.38,4.28-6.01,7.44-7.9,3.16-1.89,6.8-2.83,10.93-2.83s8.01.94,11.66,2.83c3.64,1.89,6.87,4.52,9.68,7.9,2.81,3.38,5,7.27,6.58,11.66-1.58,4.39-3.78,8.25-6.58,11.59-2.81,3.34-6.04,5.95-9.68,7.84Z"/><path class="cls-4" d="m290.4,312.59c-4.65-1.98-11.02-3.31-19.1-4.02l-18.17-1.45c-5-.44-8.43-1.21-10.27-2.3-1.84-1.1-2.77-2.52-2.77-4.28,0-2.55,1.49-4.45,4.48-5.73,2.98-1.27,7.24-1.91,12.77-1.91,4.92,0,8.91.53,11.99,1.58,3.07,1.05,5.42,2.39,7.05,4.02,1.62,1.63,2.61,3.36,2.96,5.2h22.39c-.53-5.09-2.7-9.57-6.52-13.43-3.82-3.86-8.89-6.89-15.21-9.09-6.32-2.19-13.52-3.29-21.6-3.29s-14.86.92-20.87,2.77c-6.02,1.84-10.69,4.57-14.03,8.17-3.34,3.6-5,8.08-5,13.43,0,3.86,1.03,7.4,3.09,10.6,2.06,3.21,5.55,5.86,10.47,7.97,4.92,2.11,11.54,3.51,19.89,4.21l13.96,1.05c5.97.53,10.08,1.32,12.31,2.37,2.24,1.05,3.36,2.59,3.36,4.61,0,2.81-1.6,4.92-4.81,6.32-3.21,1.41-7.93,2.11-14.16,2.11-4.48,0-8.41-.48-11.79-1.45-3.38-.96-6.12-2.35-8.23-4.15-2.11-1.8-3.42-3.93-3.95-6.39h-22.39c.26,5.44,2.28,10.23,6.06,14.36,3.77,4.13,9.04,7.31,15.8,9.55,6.76,2.24,14.7,3.36,23.84,3.36s16.37-.99,22.52-2.96c6.14-1.98,10.78-4.89,13.89-8.76,3.12-3.86,4.68-8.47,4.68-13.83,0-4.13-.94-7.77-2.83-10.93-1.89-3.16-5.16-5.73-9.81-7.7Z"/><path class="cls-4" d="m367.57,339.39c-5.97,0-10.16-1.16-12.58-3.49-2.42-2.33-3.62-6.39-3.62-12.18v-27.26h33.19v-16.59h-33.19v-19.75h-12.64l-9.35,21.47-15.67,5.14v9.75h15.67v30.42c0,5.97,1.16,11.19,3.49,15.67,2.33,4.48,5.93,7.97,10.8,10.47,4.87,2.5,11.21,3.75,19.03,3.75,4.48,0,8.82-.46,13.04-1.38,4.21-.92,7.59-1.91,10.14-2.96v-17.12c-2.63,1.32-5.4,2.33-8.3,3.03-2.9.7-6.24,1.05-10.01,1.05Z"/><path class="cls-4" d="m469.11,282.83c-7.03-3.29-15.19-4.94-24.5-4.94s-17.47,1.65-24.5,4.94c-7.03,3.29-12.51,7.9-16.46,13.83-3.95,5.93-5.93,12.84-5.93,20.74s1.97,14.68,5.93,20.61c3.95,5.93,9.44,10.54,16.46,13.83,7.02,3.29,15.19,4.94,24.5,4.94s17.47-1.65,24.5-4.94c7.02-3.29,12.49-7.9,16.4-13.83,3.91-5.93,5.86-12.8,5.86-20.61s-1.95-14.82-5.86-20.74c-3.91-5.93-9.37-10.54-16.4-13.83Zm-2.96,46.62c-1.98,3.38-4.79,5.99-8.43,7.84-3.64,1.84-8.01,2.77-13.1,2.77s-9.35-.92-13.04-2.77c-3.69-1.84-6.52-4.46-8.49-7.84-1.98-3.38-2.96-7.4-2.96-12.05s.99-8.8,2.96-12.18c1.98-3.38,4.81-5.99,8.49-7.84,3.69-1.84,8.03-2.77,13.04-2.77s9.46.92,13.1,2.77c3.64,1.84,6.45,4.46,8.43,7.84,1.98,3.38,2.96,7.44,2.96,12.18s-.99,8.67-2.96,12.05Z"/><path class="cls-4" d="m565.32,278.22c-1.71-.22-3.4-.33-5.07-.33-5.09,0-9.48,1.03-13.17,3.09-3.69,2.06-6.78,4.87-9.28,8.43-2.18,3.1-3.94,6.63-5.29,10.59l-3.34-20.13h-22.26l4.74,24.63v50.31h21.99v-32.4c0-5.88,1.01-10.75,3.03-14.62,2.02-3.86,4.78-6.72,8.3-8.56,3.51-1.84,7.46-2.77,11.85-2.77,2.02,0,4.17.13,6.45.4,2.28.26,4.56.66,6.85,1.19v-18.96c-1.49-.35-3.09-.64-4.81-.86Z"/><path class="cls-3" d="m573.02,335.41c-1.66-.84-3.64-1.26-5.95-1.26s-4.25.42-5.92,1.26c-1.68.84-2.96,2.02-3.86,3.56-.9,1.54-1.35,3.38-1.35,5.53s.45,3.94,1.35,5.47c.9,1.54,2.18,2.72,3.86,3.56,1.68.84,3.65,1.26,5.92,1.26s4.3-.42,5.95-1.26c1.65-.84,2.93-2.02,3.83-3.56.9-1.54,1.35-3.36,1.35-5.47s-.45-4-1.35-5.53c-.9-1.54-2.17-2.72-3.83-3.56Z"/></g></svg>
